PathFileType	4	(X/Y/Z)	Patient4_TMGait_0pt8_01_left_13.trc.trc
DataRate	CameraRate	NumFrames	NumMarkers	Units	OrigDataRate	OrigDataStartFrame	OrigNumFrames
87.500000000000	87.500000000000	6	33	mm	87.500000000000	1	       141
Frame#	Time	Sacral			L.Shoulder			Chest			R.Shoulder			Neck			R.ASIS			L.ASIS			R.Thigh.Superior			R.Thigh.Lateral			R.Thigh.Inferior			R.Patella			L.Thigh.Superior			L.Thigh.Lateral			L.Thigh.Inferior			L.Patella			L.Shank.Superior			L.Shank.Lateral			L.Shank.Inferior			R.Shank.Superior			R.Shank.Lateral			R.Shank.Inferior			R.Heel			R.Midfoot.Superior			R.Midfoot.Lateral			R.Toe			L.Heel			L.Midfoot.Lateral			L.Midfoot.Superior			L.Toe			L.Elbow			L.Wrist			R.Elbow			R.Wrist			
		X1	Y1	Z1	X2	Y2	Z2	X3	Y3	Z3	X4	Y4	Z4	X5	Y5	Z5	X6	Y6	Z6	X7	Y7	Z7	X8	Y8	Z8	X9	Y9	Z9	X10	Y10	Z10	X11	Y11	Z11	X12	Y12	Z12	X13	Y13	Z13	X14	Y14	Z14	X15	Y15	Z15	X16	Y16	Z16	X17	Y17	Z17	X18	Y18	Z18	X19	Y19	Z19	X20	Y20	Z20	X21	Y21	Z21	X22	Y22	Z22	X23	Y23	Z23	X24	Y24	Z24	X25	Y25	Z25	X26	Y26	Z26	X27	Y27	Z27	X28	Y28	Z28	X29	Y29	Z29	X30	Y30	Z30	X31	Y31	Z31	X32	Y32	Z32	X33	Y33	Z33	

1	13.760000000000	866.306204711257	995.188558925966	532.547973433797	1009.150864176983	1438.173566854828	351.190097303479	1129.474729723765	1367.715511192483	499.869512780230	1059.152811314013	1431.191079914804	683.876683104190	1017.758805467674	1493.573552293512	508.375897325515	1104.851415622698	947.757227917083	634.403531763448	1069.613481673945	962.526481045419	361.111698684106	1151.495075571884	748.286258260920	607.354957582467	1076.576636483915	634.118202341500	669.229596498624	1155.683869047945	585.773157151653	589.845457090893	1158.495603410199	495.137894293778	597.056512446263	1166.141019890383	786.999526368232	379.671262266915	1122.225695360736	655.287917659467	305.675381946748	1237.593138138214	601.319178661931	353.055011253550	1256.008514616916	511.605871914080	344.743674486626	1192.361498516864	439.687789697029	345.585681256600	1048.544113168352	390.112030836977	310.936354472967	1048.397241212388	260.463466871702	366.520942405488	1128.449560120723	405.154466705197	603.052445607819	1054.838183081077	301.447615207329	663.093786237447	1098.089090636813	207.399469482507	599.336213087971	963.717807943134	42.591002952189	566.099856703827	1134.580670724525	99.283601254498	602.539956149101	1047.340658704967	36.726093402236	641.030283514391	1254.674187444812	50.653507280197	628.392369161660	865.421509990541	182.829964875645	422.784405624837	918.075860660898	144.994961558923	335.161839578213	1024.310726502647	159.392366927478	347.330437383486	1106.112153826016	55.146446927214	305.362958816671	972.378172012065	1087.123347382080	234.893212938376	1152.630933297277	895.005573915637	240.862924879911	1054.786889003264	1075.167726042725	791.061963316490	1166.088025360012	838.219918487283	781.358128357090	
2	13.771428571429	865.246444901389	996.295016848125	533.867608245234	1007.099223000984	1438.651023296814	351.803429556784	1128.313637762280	1368.385244917293	499.807287861463	1059.283980355771	1431.960042749551	684.245505580393	1016.765127708723	1494.307069163843	509.004738283515	1103.419364823596	948.225513052177	634.606847227564	1067.787701164401	963.450582150941	361.519795750240	1146.648763642767	747.609520318374	607.147282568477	1070.294822289102	634.568150000128	669.891229412693	1147.798636822089	585.056837030950	590.111882239069	1149.033682618765	494.841218311245	597.218016615213	1165.327233223280	789.971804607857	380.971699302167	1123.996146248450	658.165678067704	305.872952991714	1238.931680342961	605.103005919148	354.406111890397	1258.939902883501	516.826707734837	345.638281018588	1199.161903794328	443.220487410943	345.315967857303	1059.484699021523	385.455951342991	309.684306469384	1067.542023725005	256.004546752602	363.972755058472	1119.145511339985	404.993515445848	603.353609841572	1045.360015711972	301.366287822318	663.186928962200	1088.573443843055	207.248986464881	599.445078387147	954.063658359492	42.505635318959	566.057471171350	1124.982578317143	99.334564617013	602.732684040960	1037.639013920719	36.711143104467	641.024638178058	1244.932441992610	50.581405401435	628.392191489051	890.929822124672	167.271120544172	419.121734705084	945.385995132248	133.341450948781	331.349877444513	1050.044475439381	153.924985530582	343.797013274531	1137.553132415199	55.569881656967	301.351236549235	965.299094312442	1087.435806394329	238.088279758371	1126.808808515647	882.684716700360	243.106808016264	1066.630401148069	1076.365773487762	791.183277816261	1193.173607289429	849.477453831391	777.168223358159	
3	13.782857142857	864.192190660293	997.357274924375	535.122590686285	1005.106780989846	1439.088503501622	352.386326953635	1127.176494783266	1369.006448376999	499.738099445373	1059.399750912100	1432.674745819315	684.592836859205	1015.789400054342	1494.993966284787	509.604508778430	1102.017423900016	948.668627807402	634.835409601928	1066.020298948868	964.310421895973	361.918554033694	1141.885832802378	746.922424544907	606.971910531089	1064.079464740484	634.992102829570	670.527977299085	1139.996425682605	584.336447911244	590.369394917050	1139.681262452010	494.552089820606	597.360913371622	1164.472247754620	792.746149254058	382.274627089304	1125.592173922767	660.858939318545	306.111521856874	1240.038957166873	608.613010823134	355.813740209929	1261.601818934600	521.806925844767	346.578775874326	1205.690572062654	446.618204716912	345.071319089657	1070.304818637890	380.746646981974	308.370275910689	1086.536779423586	251.604936827096	361.387773037950	1109.957472628891	404.836034525560	603.632805007212	1036.019837499571	301.276589594831	663.278350844802	1079.179781855271	207.101204310652	599.536706009851	944.525610008024	42.422689021925	566.015435795905	1115.497470316772	99.383295134603	602.915586681906	1028.056061505004	36.695964779216	641.018756188213	1235.310004385652	50.519216703229	628.389517092968	916.423345481159	151.920228218388	415.374927185539	972.621604092561	121.889274197341	327.459219744890	1075.653714508628	148.576464880406	340.208488237692	1168.752627885083	56.109416635595	297.287237135008	958.345053787112	1087.727365681114	241.211499193720	1101.182233902214	870.857993919944	245.269390650163	1078.301122393123	1077.581504385323	791.250897008600	1219.873867973138	860.905097895157	772.905625408546	
4	13.794285714286	863.149458375127	998.330651137757	536.253834438001	1003.235808451250	1439.437649271525	352.897324705163	1126.091018943068	1369.521861377966	499.643882768676	1059.490888719785	1433.280767254656	684.884587539814	1014.854145768054	1495.581990279554	510.134510853394	1100.674454308358	949.051678657512	635.094198463523	1064.358179275889	965.030372473993	362.298362719439	1137.255755256142	746.197567837681	606.855731932125	1057.954112291555	635.364319808443	671.121263468081	1132.301743057274	583.596549976686	590.608346126349	1130.477170509432	494.266660166082	597.467651481535	1163.502875232235	795.097073744499	383.571773608744	1126.799675850257	663.171215347588	306.395924031982	1240.658463067050	611.568600872532	357.299199515296	1263.705983943191	526.324211205866	347.596130208922	1211.688009612124	449.772892526572	344.862702498658	1080.951764935220	375.941747497184	306.930026669267	1105.332098682690	247.382052370187	358.738817497523	1100.916320385613	404.678356026066	603.869155509155	1026.865787569267	301.172124094382	663.371870989089	1069.931403710649	206.955965732345	599.596372204524	935.113832793612	42.344535051387	565.975024734780	1106.133706709701	99.425244786872	603.079893111142	1018.604467824329	36.679240297891	641.011199499874	1225.822036523977	50.470828415797	628.382724824074	942.054412805323	137.016381585100	411.463430757367	999.917463752526	110.878489348331	323.449021371687	1101.172110101446	143.549137331938	336.548048701354	1199.656894810427	57.025550405151	293.239526773241	951.549868283479	1088.004964303862	244.184295421248	1075.793781149262	860.018911416411	247.290864306917	1089.725117910057	1078.868800445762	791.181713954273	1245.914084408722	872.914932467047	768.433388903112	
5	13.805714285714	862.127872451493	999.177432331391	537.218435845911	1001.540023721179	1439.658125342697	353.299451117466	1125.083135736340	1369.883605159141	499.506266765924	1059.552867609920	1433.735804817484	685.088952326513	1013.980725915269	1496.027845116558	510.558596941494	1099.414104638209	949.344360889386	635.384879812609	1062.836378544462	965.546323155559	362.651373429279	1132.789107615460	745.407414805625	606.821598132314	1051.927145428004	635.664964854163	671.660165170372	1124.724080502282	582.821451882087	590.823385107779	1121.439521525112	493.976981749001	597.525393304805	1162.348112853623	796.832364579223	384.847856547676	1127.429848681854	664.939586483249	306.711273153407	1240.573807084752	613.739959813979	358.860379988261	1265.016989387957	530.204016645703	348.707255389894	1216.947031104123	452.609064693691	344.699526012403	1091.406894856723	371.026454320370	305.304237621420	1123.900590265551	243.468478438951	356.021796679834	1092.027461654216	404.515780151919	604.047995588757	1017.914629297173	301.048788785771	663.473666490886	1060.823625244097	206.811384354929	599.612967823814	925.812593304891	42.271765574797	565.936704676128	1096.873077174906	99.456270740640	603.218669757475	1009.269693932815	36.659460579309	641.000314525873	1216.456676344122	50.437817280840	628.372041086095	967.963600652131	122.802357640125	407.327877966492	1027.425563246029	100.544794833438	319.312154327477	1126.656535664158	139.053377876313	332.836328978086	1230.259634841182	58.580710985915	289.345080079020	944.909382044318	1088.284577372966	246.938311012025	1050.676799991473	850.572565202982	249.132346004814	1100.863915876341	1080.280341505848	790.900244140297	1271.078469689534	885.898317552988	763.629233513334	
6	13.817142857143	861.141890445619	999.869196550154	537.992923327510	1000.062004543816	1439.721036507241	353.562512527279	1124.176362373266	1370.057307087187	499.308006191564	1059.586863693285	1434.013512357622	685.178515036363	1013.189131279386	1496.300823792588	510.847186882395	1098.254980852644	949.522670621478	635.703585856563	1061.476489869740	965.811172582712	362.971100913178	1128.502701929143	744.528360839484	606.884322298069	1046.002164639037	635.881174040477	672.140238909990	1117.269105394329	581.998051925773	591.012639004247	1112.578639715965	493.671428194371	597.527173086674	1160.948309637570	797.810792966967	386.078508340957	1127.338803094521	666.049908691474	307.021758860593	1239.634728290592	614.971289723948	360.465671781939	1265.376870624305	533.333330074423	349.909046555794	1221.326281479733	455.087590554090	344.587197366041	1101.666111852337	366.025984682123	303.451534951668	1142.203360352456	240.006596743370	353.263200337602	1083.283924117573	404.342892865038	604.162252288097	1009.162456755854	300.905802434715	663.591518265111	1051.836354223756	206.664550294897	599.581188289907	916.593732026546	42.203839921464	565.900609740241	1087.684612381219	99.472227379496	603.326617725336	1000.023500483796	36.635143773916	640.984431717768	1207.188545987634	50.418547135602	628.359557800030	994.213542789453	109.525834269252	402.949190926667	1055.245019997408	91.114559090855	315.089119228582	1152.129504873392	135.295937311661	329.139734016418	1260.542471413062	61.012991412386	285.806557278248	938.390866679155	1088.591188230904	249.416388488237	1025.893884164957	842.807214863497	250.777785217183	1111.702123750718	1081.861681733066	790.345863474243	1295.186523280370	900.169727598386	758.405751945296	
